<?xml version="1.0" encoding="UTF-8"?>
<!-- Generator: Adobe Illustrator 24.3.0, SVG Export Plug-In . SVG Version: 6.00 Build 0)  -->
<svg version="1.1" id="Layer_1" xmlns="http://www.w3.org/2000/svg" xmlns:xlink="http://www.w3.org/1999/xlink" x="0px" y="0px" viewBox="0 0 167.2 45.9" style="enable-background:new 0 0 167.2 45.9;" xml:space="preserve">
<style type="text/css">
	.st0{clip-path:url(#SVGID_2_);}
	.st1{clip-path:url(#SVGID_4_);}
	.st2{clip-path:url(#SVGID_6_);fill:url(#SVGID_7_);}
	.st3{clip-path:url(#SVGID_9_);fill:#FFFFFF;}
	.st4{fill:url(#SVGID_36_);}
	.st5{fill:#505354;}
	.st6{clip-path:url(#SVGID_38_);fill:url(#SVGID_39_);}
	.st7{fill:#CA1F3E;}
	.st8{fill:#FFFFFF;}
	.st9{fill:none;stroke:#FFFFFF;stroke-width:0.2;stroke-miterlimit:10;}
	.st10{fill:none;stroke:#FFFFFF;stroke-width:0.1;stroke-miterlimit:10;}
	.st11{fill:none;stroke:#FFFFFF;stroke-width:5.000000e-02;stroke-miterlimit:10;}
	.st12{fill-rule:evenodd;clip-rule:evenodd;fill:#FFFFFF;}
</style>
<g>
	<path class="st5" d="M78.5,40.4c0,0.7-0.1,1.4-0.4,2c-0.5,1.2-1.5,2.2-2.7,2.7c-0.6,0.3-1.3,0.4-2,0.4H63.4V27.3h10.1   c0.7,0,1.4,0.2,2,0.4c0.6,0.3,1.1,0.6,1.6,1.1c0.5,0.5,0.8,1,1.1,1.6c0.3,0.6,0.4,1.3,0.4,2L78.5,40.4L78.5,40.4z M65.7,43.1h7.7   c1.5,0,2.7-1.2,2.8-2.7v0v-8c0-0.4-0.1-0.7-0.2-1.1c-0.2-0.3-0.3-0.6-0.6-0.9c-0.2-0.3-0.5-0.5-0.9-0.6c-0.3-0.2-0.7-0.2-1.1-0.2   h-7.8L65.7,43.1z"/>
	<rect x="82.3" y="27.3" class="st5" width="2.3" height="18.2"/>
	<path class="st5" d="M91.4,45.1c-0.6-0.3-1.1-0.6-1.6-1.1c-0.5-0.5-0.8-1-1.1-1.6c-0.3-0.6-0.4-1.3-0.4-2v-8.1c0-0.7,0.1-1.4,0.4-2   c0.3-0.6,0.6-1.1,1.1-1.6c0.5-0.5,1-0.8,1.6-1.1c0.6-0.3,1.3-0.4,2-0.4h6.8c0.7,0,1.3,0.1,2,0.4c1.2,0.5,2.2,1.5,2.6,2.7   c0.3,0.6,0.4,1.3,0.4,2v0.7h-2.3v-0.7c0-0.7-0.3-1.4-0.8-1.9c-0.5-0.5-1.2-0.8-1.9-0.8h-6.8c-0.4,0-0.7,0.1-1.1,0.2   c-0.3,0.2-0.6,0.3-0.8,0.6c-0.5,0.5-0.8,1.2-0.8,1.9v8.1c0,0.4,0.1,0.7,0.2,1.1c0.2,0.3,0.3,0.6,0.6,0.9c0.2,0.3,0.5,0.5,0.8,0.6   c0.3,0.2,0.7,0.2,1.1,0.2h6.8c0.4,0,0.7-0.1,1.1-0.2c0.6-0.3,1.2-0.8,1.4-1.4c0.2-0.3,0.2-0.7,0.2-1.1v-2.9h-7.3v-2.4h9.6v5.3   c0,0.7-0.1,1.4-0.4,2c-0.3,0.6-0.6,1.1-1.1,1.6c-0.5,0.5-1,0.8-1.6,1.1c-0.6,0.3-1.3,0.4-2,0.4h-6.8C92.7,45.5,92.1,45.3,91.4,45.1   "/>
	<rect x="109" y="27.3" class="st5" width="2.3" height="18.2"/>
	<path class="st5" d="M122.3,30.5c0.1-0.3,0.2-0.6,0.3-0.9h-7.5v-2.3h17.2v2.3h-6c-0.5,0-0.9,0.2-1.3,0.5c-0.3,0.3-0.5,0.8-0.5,1.3   v14h-2.4v-14C122.2,31.1,122.2,30.8,122.3,30.5"/>
	<path class="st5" d="M138.4,45.5H136v-13c0-0.7,0.2-1.4,0.4-2c0.3-0.6,0.6-1.2,1.1-1.7c0.5-0.5,1-0.8,1.6-1.1   c0.6-0.3,1.3-0.4,2-0.4h10v18.2h-2.3v-7.9h-9v-2.4h9v-5.6h-7.7c-0.4,0-0.8,0.1-1.1,0.2c-0.3,0.2-0.6,0.4-0.9,0.6   c-0.5,0.5-0.8,1.3-0.8,2V45.5z"/>
	<path class="st5" d="M158,45.1c-0.6-0.3-1.1-0.6-1.6-1.1c-0.5-0.5-0.8-1-1.1-1.6c-0.3-0.6-0.4-1.3-0.4-2V27.2h2.3v13.2   c0,0.4,0.1,0.7,0.2,1.1c0.2,0.3,0.3,0.6,0.6,0.9c0.2,0.3,0.5,0.5,0.8,0.6c0.3,0.2,0.7,0.2,1.1,0.2h7.3v2.3H160   C159.3,45.5,158.6,45.3,158,45.1"/>
	<polygon class="st5" points="63.3,0.2 67.8,0.2 67.8,8 78.2,0.2 84.3,0.2 72.1,9.1 85.9,18.2 79,18.2 67.9,10.7 67.9,18.3    63.4,18.3  "/>
	<rect x="90.4" y="0.2" class="st5" width="4.5" height="18.1"/>
	<polygon class="st5" points="112.4,18.2 107.9,18.2 107.9,4.7 99.1,4.7 99.1,0.1 121,0.1 121,4.7 112.4,4.7  "/>
	<g>
		<defs>
			<path id="SVGID_37_" d="M3.9,0.1c-2,0-3.6,1.5-3.7,3.4c-0.1,2,1.4,3.6,3.4,3.8h0.2h27.7c8.7,0,15.7,6.9,15.8,15.5     c0,7.7-5.5,14.2-13.2,15.5c-0.8,0.2-1.6-0.1-2.2-0.6l-10-7.9l9.8-9.3c1.4-1.3,1.6-3.5,0.3-5c-1.2-1.5-3.5-1.7-5-0.5     c-0.1,0-0.1,0.1-0.2,0.2L17.5,24v-9.3H3.9c-2,0-3.6,1.5-3.7,3.4c-0.1,2,1.4,3.6,3.4,3.8h0.2h6.5v20c0,2,1.5,3.6,3.4,3.7     c2,0.1,3.7-1.5,3.7-3.4v-0.2v-6.5l11.5,9.1c0.2,0.2,0.4,0.3,0.6,0.4c0.6,0.4,1.3,0.6,2,0.6c12.5,0,22.7-10.3,22.6-23     C54.2,10.2,44,0.1,31.4,0.1H3.9z"/>
		</defs>
		<clipPath id="SVGID_2_">
			<use xlink:href="#SVGID_37_" style="overflow:visible;"/>
		</clipPath>
		
			<linearGradient id="SVGID_4_" gradientUnits="userSpaceOnUse" x1="12.0543" y1="927.4155" x2="13.0485" y2="927.4155" gradientTransform="matrix(-0.1341 49.4773 49.4773 0.1341 -45857.0391 -724.9186)">
			<stop offset="0" style="stop-color:#CA1F3F"/>
			<stop offset="0.19" style="stop-color:#CD233E"/>
			<stop offset="0.34" style="stop-color:#D03039"/>
			<stop offset="0.48" style="stop-color:#D63E36"/>
			<stop offset="0.61" style="stop-color:#DC552F"/>
			<stop offset="0.74" style="stop-color:#E4702E"/>
			<stop offset="0.86" style="stop-color:#ED902A"/>
			<stop offset="0.98" style="stop-color:#F8B82F"/>
			<stop offset="1" style="stop-color:#FCC22A"/>
		</linearGradient>
		<polygon style="clip-path:url(#SVGID_2_);fill:url(#SVGID_4_);" points="54.6,0.1 54.5,45.9 0,45.7 0.1,0   "/>
	</g>
</g>
</svg>